G75*
G70*
%OFA0B0*%
%FSLAX24Y24*%
%IPPOS*%
%LPD*%
%AMOC8*
5,1,8,0,0,1.08239X$1,22.5*
%
%ADD10C,0.0080*%
%ADD11R,0.0709X0.0630*%
%ADD12C,0.0000*%
%ADD13C,0.0433*%
%ADD14C,0.0740*%
%ADD15C,0.0750*%
%ADD16C,0.0500*%
%ADD17C,0.0650*%
%ADD18C,0.0100*%
%ADD19C,0.0120*%
%ADD20C,0.0400*%
D10*
X013833Y004000D02*
X021333Y004000D01*
X021333Y009000D01*
X013833Y009000D01*
X013833Y004000D01*
D11*
X016333Y004949D03*
X016333Y006051D03*
D12*
X014183Y008000D02*
X014185Y008050D01*
X014191Y008100D01*
X014201Y008150D01*
X014214Y008198D01*
X014231Y008246D01*
X014252Y008292D01*
X014276Y008336D01*
X014304Y008378D01*
X014335Y008418D01*
X014369Y008455D01*
X014406Y008490D01*
X014445Y008521D01*
X014486Y008550D01*
X014530Y008575D01*
X014576Y008597D01*
X014623Y008615D01*
X014671Y008629D01*
X014720Y008640D01*
X014770Y008647D01*
X014820Y008650D01*
X014871Y008649D01*
X014921Y008644D01*
X014971Y008635D01*
X015019Y008623D01*
X015067Y008606D01*
X015113Y008586D01*
X015158Y008563D01*
X015201Y008536D01*
X015241Y008506D01*
X015279Y008473D01*
X015314Y008437D01*
X015347Y008398D01*
X015376Y008357D01*
X015402Y008314D01*
X015425Y008269D01*
X015444Y008222D01*
X015459Y008174D01*
X015471Y008125D01*
X015479Y008075D01*
X015483Y008025D01*
X015483Y007975D01*
X015479Y007925D01*
X015471Y007875D01*
X015459Y007826D01*
X015444Y007778D01*
X015425Y007731D01*
X015402Y007686D01*
X015376Y007643D01*
X015347Y007602D01*
X015314Y007563D01*
X015279Y007527D01*
X015241Y007494D01*
X015201Y007464D01*
X015158Y007437D01*
X015113Y007414D01*
X015067Y007394D01*
X015019Y007377D01*
X014971Y007365D01*
X014921Y007356D01*
X014871Y007351D01*
X014820Y007350D01*
X014770Y007353D01*
X014720Y007360D01*
X014671Y007371D01*
X014623Y007385D01*
X014576Y007403D01*
X014530Y007425D01*
X014486Y007450D01*
X014445Y007479D01*
X014406Y007510D01*
X014369Y007545D01*
X014335Y007582D01*
X014304Y007622D01*
X014276Y007664D01*
X014252Y007708D01*
X014231Y007754D01*
X014214Y007802D01*
X014201Y007850D01*
X014191Y007900D01*
X014185Y007950D01*
X014183Y008000D01*
X019683Y008000D02*
X019685Y008050D01*
X019691Y008100D01*
X019701Y008150D01*
X019714Y008198D01*
X019731Y008246D01*
X019752Y008292D01*
X019776Y008336D01*
X019804Y008378D01*
X019835Y008418D01*
X019869Y008455D01*
X019906Y008490D01*
X019945Y008521D01*
X019986Y008550D01*
X020030Y008575D01*
X020076Y008597D01*
X020123Y008615D01*
X020171Y008629D01*
X020220Y008640D01*
X020270Y008647D01*
X020320Y008650D01*
X020371Y008649D01*
X020421Y008644D01*
X020471Y008635D01*
X020519Y008623D01*
X020567Y008606D01*
X020613Y008586D01*
X020658Y008563D01*
X020701Y008536D01*
X020741Y008506D01*
X020779Y008473D01*
X020814Y008437D01*
X020847Y008398D01*
X020876Y008357D01*
X020902Y008314D01*
X020925Y008269D01*
X020944Y008222D01*
X020959Y008174D01*
X020971Y008125D01*
X020979Y008075D01*
X020983Y008025D01*
X020983Y007975D01*
X020979Y007925D01*
X020971Y007875D01*
X020959Y007826D01*
X020944Y007778D01*
X020925Y007731D01*
X020902Y007686D01*
X020876Y007643D01*
X020847Y007602D01*
X020814Y007563D01*
X020779Y007527D01*
X020741Y007494D01*
X020701Y007464D01*
X020658Y007437D01*
X020613Y007414D01*
X020567Y007394D01*
X020519Y007377D01*
X020471Y007365D01*
X020421Y007356D01*
X020371Y007351D01*
X020320Y007350D01*
X020270Y007353D01*
X020220Y007360D01*
X020171Y007371D01*
X020123Y007385D01*
X020076Y007403D01*
X020030Y007425D01*
X019986Y007450D01*
X019945Y007479D01*
X019906Y007510D01*
X019869Y007545D01*
X019835Y007582D01*
X019804Y007622D01*
X019776Y007664D01*
X019752Y007708D01*
X019731Y007754D01*
X019714Y007802D01*
X019701Y007850D01*
X019691Y007900D01*
X019685Y007950D01*
X019683Y008000D01*
D13*
X018503Y006622D02*
X018503Y006268D01*
X018503Y006622D02*
X018503Y006622D01*
X018503Y006268D01*
X018503Y006268D01*
X017833Y006268D02*
X017833Y006622D01*
X017833Y006622D01*
X017833Y006268D01*
X017833Y006268D01*
X017164Y006268D02*
X017164Y006622D01*
X017164Y006622D01*
X017164Y006268D01*
X017164Y006268D01*
X017164Y004732D02*
X017164Y004378D01*
X017164Y004732D02*
X017164Y004732D01*
X017164Y004378D01*
X017164Y004378D01*
X017833Y004378D02*
X017833Y004732D01*
X017833Y004732D01*
X017833Y004378D01*
X017833Y004378D01*
X018503Y004378D02*
X018503Y004732D01*
X018503Y004732D01*
X018503Y004378D01*
X018503Y004378D01*
D14*
X020833Y004500D03*
X020833Y005500D03*
X020833Y006500D03*
X014333Y006500D03*
X014333Y005500D03*
X014333Y004500D03*
D15*
X016333Y006051D02*
X016333Y006500D01*
X016833Y006500D01*
X016333Y006500D02*
X014333Y006500D01*
D16*
X016833Y006500D02*
X017033Y006500D01*
D17*
X017109Y006500D01*
X017164Y006445D01*
X017164Y005669D01*
X017833Y005000D01*
X017833Y004555D01*
D18*
X018453Y004605D02*
X018453Y005096D01*
X018396Y005085D01*
X018329Y005057D01*
X018328Y005057D01*
X018328Y005098D01*
X018257Y005270D01*
X018540Y005270D01*
X018624Y005186D01*
X018760Y005130D01*
X018907Y005130D01*
X019043Y005186D01*
X019147Y005290D01*
X019203Y005426D01*
X019203Y005574D01*
X019147Y005710D01*
X019043Y005814D01*
X018907Y005870D01*
X018760Y005870D01*
X018624Y005814D01*
X018540Y005730D01*
X018429Y005730D01*
X018135Y006023D01*
X018161Y006049D01*
X018168Y006066D01*
X018175Y006049D01*
X018284Y005940D01*
X018426Y005881D01*
X018580Y005881D01*
X018722Y005940D01*
X018830Y006049D01*
X018868Y006140D01*
X019603Y005405D01*
X019738Y005270D01*
X020344Y005270D01*
X020376Y005194D01*
X020527Y005042D01*
X020656Y004989D01*
X020634Y004982D01*
X020561Y004945D01*
X020495Y004897D01*
X020437Y004839D01*
X020389Y004773D01*
X020351Y004700D01*
X020326Y004622D01*
X020315Y004550D01*
X020783Y004550D01*
X020783Y004450D01*
X020315Y004450D01*
X020326Y004378D01*
X020351Y004300D01*
X020389Y004227D01*
X020401Y004210D01*
X018830Y004210D01*
X018855Y004271D01*
X018869Y004342D01*
X018869Y004505D01*
X018553Y004505D01*
X018553Y004605D01*
X018869Y004605D01*
X018869Y004768D01*
X018855Y004839D01*
X018827Y004906D01*
X018787Y004966D01*
X018736Y005017D01*
X018676Y005057D01*
X018610Y005085D01*
X018553Y005096D01*
X018553Y004605D01*
X018453Y004605D01*
X018453Y004690D02*
X018553Y004690D01*
X018553Y004788D02*
X018453Y004788D01*
X018453Y004887D02*
X018553Y004887D01*
X018835Y004887D02*
X020484Y004887D01*
X020400Y004788D02*
X018865Y004788D01*
X018869Y004690D02*
X020348Y004690D01*
X020321Y004591D02*
X018553Y004591D01*
X018869Y004493D02*
X020783Y004493D01*
X020324Y004394D02*
X018869Y004394D01*
X018860Y004296D02*
X020354Y004296D01*
X020643Y004985D02*
X018768Y004985D01*
X018613Y005084D02*
X020486Y005084D01*
X020388Y005182D02*
X019032Y005182D01*
X019137Y005281D02*
X019728Y005281D01*
X019629Y005379D02*
X019184Y005379D01*
X019203Y005478D02*
X019531Y005478D01*
X019432Y005576D02*
X019202Y005576D01*
X019162Y005675D02*
X019334Y005675D01*
X019235Y005773D02*
X019084Y005773D01*
X019137Y005872D02*
X018287Y005872D01*
X018254Y005970D02*
X018189Y005970D01*
X018752Y005970D02*
X019038Y005970D01*
X018940Y006069D02*
X018838Y006069D01*
X018583Y005773D02*
X018386Y005773D01*
X016737Y005406D02*
X016707Y005414D01*
X016383Y005414D01*
X016383Y004999D01*
X016283Y004999D01*
X016283Y004899D01*
X015829Y004899D01*
X015829Y004614D01*
X015839Y004576D01*
X015859Y004542D01*
X015887Y004514D01*
X015921Y004494D01*
X015959Y004484D01*
X016283Y004484D01*
X016283Y004899D01*
X016383Y004899D01*
X016383Y004484D01*
X016707Y004484D01*
X016746Y004494D01*
X016778Y004513D01*
X016778Y004301D01*
X016815Y004210D01*
X014765Y004210D01*
X014778Y004227D01*
X014815Y004300D01*
X014841Y004378D01*
X014852Y004450D01*
X014383Y004450D01*
X014383Y004550D01*
X014852Y004550D01*
X014841Y004622D01*
X014815Y004700D01*
X014778Y004773D01*
X014730Y004839D01*
X014672Y004897D01*
X014606Y004945D01*
X014533Y004982D01*
X014511Y004989D01*
X014639Y005042D01*
X014791Y005194D01*
X014873Y005393D01*
X014873Y005607D01*
X014791Y005806D01*
X014642Y005955D01*
X015788Y005955D01*
X015788Y005943D01*
X015809Y005893D01*
X015809Y005666D01*
X015909Y005566D01*
X016080Y005566D01*
X016225Y005506D01*
X016442Y005506D01*
X016587Y005566D01*
X016671Y005566D01*
X016737Y005406D01*
X016708Y005478D02*
X014873Y005478D01*
X014873Y005576D02*
X015899Y005576D01*
X015809Y005675D02*
X014846Y005675D01*
X014805Y005773D02*
X015809Y005773D01*
X015809Y005872D02*
X014726Y005872D01*
X014868Y005379D02*
X015882Y005379D01*
X015887Y005384D02*
X015859Y005356D01*
X015839Y005322D01*
X015829Y005284D01*
X015829Y004999D01*
X016283Y004999D01*
X016283Y005414D01*
X015959Y005414D01*
X015921Y005404D01*
X015887Y005384D01*
X015829Y005281D02*
X014827Y005281D01*
X014779Y005182D02*
X015829Y005182D01*
X015829Y005084D02*
X014681Y005084D01*
X014523Y004985D02*
X016283Y004985D01*
X016283Y005084D02*
X016383Y005084D01*
X016383Y004999D02*
X016838Y004999D01*
X016838Y005284D01*
X016833Y005300D01*
X016884Y005250D01*
X017036Y005098D01*
X016945Y005060D01*
X016836Y004951D01*
X016815Y004899D01*
X016383Y004899D01*
X016383Y004999D01*
X016383Y004985D02*
X016870Y004985D01*
X016838Y005084D02*
X017002Y005084D01*
X016951Y005182D02*
X016838Y005182D01*
X016838Y005281D02*
X016853Y005281D01*
X016383Y005281D02*
X016283Y005281D01*
X016283Y005379D02*
X016383Y005379D01*
X016383Y005182D02*
X016283Y005182D01*
X016283Y004887D02*
X016383Y004887D01*
X016383Y004788D02*
X016283Y004788D01*
X016283Y004690D02*
X016383Y004690D01*
X016383Y004591D02*
X016283Y004591D01*
X016283Y004493D02*
X016383Y004493D01*
X016740Y004493D02*
X016778Y004493D01*
X016778Y004394D02*
X014843Y004394D01*
X014813Y004296D02*
X016780Y004296D01*
X015927Y004493D02*
X014383Y004493D01*
X014845Y004591D02*
X015835Y004591D01*
X015829Y004690D02*
X014819Y004690D01*
X014767Y004788D02*
X015829Y004788D01*
X015829Y004887D02*
X014682Y004887D01*
X018294Y005182D02*
X018634Y005182D01*
X018553Y005084D02*
X018453Y005084D01*
X018393Y005084D02*
X018328Y005084D01*
X018453Y004985D02*
X018553Y004985D01*
D19*
X018333Y005500D02*
X018833Y005500D01*
X018333Y005500D02*
X017833Y006000D01*
X017833Y006445D01*
X018503Y006445D02*
X018888Y006445D01*
X019833Y005500D01*
X020833Y005500D01*
D20*
X018833Y005500D03*
M02*
