G75*
G70*
%OFA0B0*%
%FSLAX24Y24*%
%IPPOS*%
%LPD*%
%AMOC8*
5,1,8,0,0,1.08239X$1,22.5*
%
%ADD10C,0.0060*%
%ADD11C,0.0010*%
D10*
X014940Y004387D02*
X014997Y004330D01*
X015167Y004330D01*
X015167Y004670D01*
X014997Y004670D01*
X014940Y004614D01*
X014940Y004387D01*
X015308Y004330D02*
X015308Y004670D01*
X015535Y004670D02*
X015308Y004330D01*
X015535Y004330D02*
X015535Y004670D01*
X015676Y004614D02*
X015733Y004670D01*
X015847Y004670D01*
X015903Y004614D01*
X015903Y004387D01*
X015847Y004330D01*
X015733Y004330D01*
X015676Y004387D01*
X015676Y004500D01*
X015790Y004500D01*
X019240Y004387D02*
X019297Y004330D01*
X019467Y004330D01*
X019467Y004670D01*
X019297Y004670D01*
X019240Y004614D01*
X019240Y004387D01*
X019608Y004330D02*
X019608Y004670D01*
X019835Y004670D02*
X019608Y004330D01*
X019835Y004330D02*
X019835Y004670D01*
X019976Y004614D02*
X020033Y004670D01*
X020147Y004670D01*
X020203Y004614D01*
X020203Y004387D01*
X020147Y004330D01*
X020033Y004330D01*
X019976Y004387D01*
X019976Y004500D01*
X020090Y004500D01*
X020033Y005330D02*
X019976Y005387D01*
X019976Y005614D01*
X020033Y005670D01*
X020203Y005670D01*
X020203Y005330D01*
X020033Y005330D01*
X019835Y005387D02*
X019778Y005330D01*
X019665Y005330D01*
X019608Y005387D01*
X019608Y005614D01*
X019665Y005670D01*
X019778Y005670D01*
X019835Y005614D01*
X019835Y005387D01*
X019722Y006330D02*
X019608Y006443D01*
X019608Y006670D01*
X019835Y006670D02*
X019835Y006443D01*
X019722Y006330D01*
X019976Y006387D02*
X020033Y006330D01*
X020147Y006330D01*
X020203Y006387D01*
X020203Y006500D02*
X020090Y006557D01*
X020033Y006557D01*
X019976Y006500D01*
X019976Y006387D01*
X020203Y006500D02*
X020203Y006670D01*
X019976Y006670D01*
X015603Y006670D02*
X015603Y006500D01*
X015490Y006557D01*
X015433Y006557D01*
X015376Y006500D01*
X015376Y006387D01*
X015433Y006330D01*
X015547Y006330D01*
X015603Y006387D01*
X015235Y006443D02*
X015122Y006330D01*
X015008Y006443D01*
X015008Y006670D01*
X015235Y006670D02*
X015235Y006443D01*
X015376Y006670D02*
X015603Y006670D01*
X015503Y005670D02*
X015333Y005670D01*
X015276Y005614D01*
X015276Y005387D01*
X015333Y005330D01*
X015503Y005330D01*
X015503Y005670D01*
X015135Y005670D02*
X015022Y005670D01*
X015078Y005670D02*
X015078Y005330D01*
X015022Y005330D02*
X015135Y005330D01*
D11*
X017449Y005650D02*
X017451Y005726D01*
X017459Y005767D01*
X017474Y005806D01*
X017493Y005843D01*
X017529Y005888D01*
X017573Y005924D01*
X017573Y005889D01*
X017574Y005883D01*
X017576Y005878D01*
X017588Y005864D01*
X017603Y005853D01*
X017501Y005853D01*
X017495Y005845D02*
X017916Y005845D01*
X017921Y005853D02*
X017659Y005853D01*
X017656Y005852D02*
X017676Y005862D01*
X017712Y005888D01*
X017729Y005902D01*
X017743Y005919D01*
X017755Y005938D01*
X017962Y005938D01*
X017961Y005930D02*
X017750Y005930D01*
X017755Y005938D02*
X017763Y005958D01*
X017766Y005971D01*
X017765Y005984D01*
X017759Y006006D01*
X017747Y006025D01*
X017730Y006040D01*
X017710Y006051D01*
X017690Y006057D01*
X017669Y006059D01*
X017645Y006059D01*
X017645Y006059D01*
X017646Y006060D01*
X017663Y006073D01*
X017683Y006082D01*
X017697Y006088D01*
X017706Y006092D01*
X017741Y006101D01*
X017776Y006104D01*
X017811Y006101D01*
X017844Y006092D01*
X017874Y006077D01*
X017905Y006055D01*
X017932Y006029D01*
X017949Y006005D01*
X017960Y005978D01*
X017963Y005949D01*
X017959Y005920D01*
X017948Y005893D01*
X017902Y005824D01*
X017844Y005763D01*
X017829Y005745D01*
X017819Y005724D01*
X017815Y005701D01*
X017817Y005678D01*
X017825Y005656D01*
X017838Y005637D01*
X017855Y005622D01*
X017878Y005610D01*
X017901Y005602D01*
X017926Y005598D01*
X017457Y005598D01*
X017458Y005590D02*
X018183Y005590D01*
X018183Y005598D02*
X018183Y005001D01*
X017991Y005217D01*
X017957Y005248D01*
X017917Y005272D01*
X017903Y005277D01*
X017887Y005280D01*
X017797Y005280D01*
X017744Y005285D01*
X017692Y005299D01*
X017643Y005323D01*
X017598Y005355D01*
X017557Y005393D01*
X017522Y005437D01*
X017485Y005503D01*
X017460Y005575D01*
X017449Y005650D01*
X017449Y005649D02*
X017830Y005649D01*
X017835Y005641D02*
X017450Y005641D01*
X017452Y005632D02*
X017844Y005632D01*
X017854Y005624D02*
X017453Y005624D01*
X017454Y005615D02*
X017868Y005615D01*
X017888Y005607D02*
X017456Y005607D01*
X017459Y005581D02*
X018183Y005581D01*
X018183Y005573D02*
X017461Y005573D01*
X017464Y005564D02*
X018183Y005564D01*
X018183Y005556D02*
X017467Y005556D01*
X017470Y005547D02*
X018183Y005547D01*
X018183Y005539D02*
X017473Y005539D01*
X017476Y005530D02*
X018183Y005530D01*
X018183Y005522D02*
X017479Y005522D01*
X017482Y005513D02*
X018183Y005513D01*
X018183Y005505D02*
X017485Y005505D01*
X017489Y005496D02*
X018183Y005496D01*
X018183Y005488D02*
X017494Y005488D01*
X017499Y005479D02*
X018183Y005479D01*
X018183Y005471D02*
X017503Y005471D01*
X017508Y005462D02*
X018183Y005462D01*
X018183Y005454D02*
X017513Y005454D01*
X017518Y005445D02*
X018183Y005445D01*
X018183Y005437D02*
X017523Y005437D01*
X017529Y005428D02*
X018183Y005428D01*
X018183Y005420D02*
X017536Y005420D01*
X017543Y005411D02*
X018183Y005411D01*
X018183Y005403D02*
X017550Y005403D01*
X017557Y005394D02*
X018183Y005394D01*
X018183Y005386D02*
X017565Y005386D01*
X017575Y005377D02*
X018183Y005377D01*
X018183Y005369D02*
X017584Y005369D01*
X017593Y005360D02*
X018183Y005360D01*
X018183Y005352D02*
X017603Y005352D01*
X017615Y005343D02*
X018183Y005343D01*
X018183Y005335D02*
X017627Y005335D01*
X017639Y005326D02*
X018183Y005326D01*
X018183Y005318D02*
X017654Y005318D01*
X017672Y005309D02*
X018183Y005309D01*
X018183Y005301D02*
X017689Y005301D01*
X017718Y005292D02*
X018183Y005292D01*
X018183Y005284D02*
X017758Y005284D01*
X017909Y005275D02*
X018183Y005275D01*
X018183Y005267D02*
X017927Y005267D01*
X017941Y005258D02*
X018183Y005258D01*
X018183Y005250D02*
X017955Y005250D01*
X017965Y005241D02*
X018183Y005241D01*
X018183Y005233D02*
X017974Y005233D01*
X017984Y005224D02*
X018183Y005224D01*
X018183Y005216D02*
X017993Y005216D01*
X018000Y005207D02*
X018183Y005207D01*
X018183Y005199D02*
X018008Y005199D01*
X018015Y005190D02*
X018183Y005190D01*
X018183Y005182D02*
X018023Y005182D01*
X018030Y005173D02*
X018183Y005173D01*
X018183Y005165D02*
X018038Y005165D01*
X018046Y005156D02*
X018183Y005156D01*
X018183Y005148D02*
X018053Y005148D01*
X018061Y005139D02*
X018183Y005139D01*
X018183Y005131D02*
X018068Y005131D01*
X018076Y005122D02*
X018183Y005122D01*
X018183Y005114D02*
X018083Y005114D01*
X018091Y005105D02*
X018183Y005105D01*
X018183Y005097D02*
X018098Y005097D01*
X018106Y005088D02*
X018183Y005088D01*
X018183Y005080D02*
X018113Y005080D01*
X018121Y005071D02*
X018183Y005071D01*
X018183Y005063D02*
X018129Y005063D01*
X018136Y005054D02*
X018183Y005054D01*
X018183Y005046D02*
X018144Y005046D01*
X018151Y005037D02*
X018183Y005037D01*
X018183Y005029D02*
X018159Y005029D01*
X018166Y005020D02*
X018183Y005020D01*
X018183Y005012D02*
X018174Y005012D01*
X018181Y005003D02*
X018183Y005003D01*
X018183Y005598D02*
X018181Y005631D01*
X018171Y005662D01*
X018155Y005691D01*
X018137Y005713D01*
X018114Y005730D01*
X018089Y005743D01*
X018061Y005750D01*
X018024Y005753D01*
X017987Y005750D01*
X017968Y005747D01*
X017975Y005748D01*
X017982Y005746D01*
X017988Y005743D01*
X018021Y005719D01*
X018027Y005714D01*
X018030Y005707D01*
X018034Y005689D01*
X018034Y005672D01*
X018030Y005654D01*
X018022Y005637D01*
X018008Y005623D01*
X017983Y005608D01*
X017955Y005599D01*
X017926Y005598D01*
X017927Y005598D02*
X018183Y005598D01*
X018183Y005607D02*
X017979Y005607D01*
X017995Y005615D02*
X018182Y005615D01*
X018181Y005624D02*
X018009Y005624D01*
X018017Y005632D02*
X018180Y005632D01*
X018178Y005641D02*
X018023Y005641D01*
X018028Y005649D02*
X018175Y005649D01*
X018172Y005658D02*
X018031Y005658D01*
X018033Y005666D02*
X018169Y005666D01*
X018164Y005675D02*
X018034Y005675D01*
X018034Y005683D02*
X018160Y005683D01*
X018155Y005692D02*
X018034Y005692D01*
X018032Y005700D02*
X018148Y005700D01*
X018140Y005709D02*
X018029Y005709D01*
X018023Y005717D02*
X018131Y005717D01*
X018120Y005726D02*
X018012Y005726D01*
X018001Y005734D02*
X018106Y005734D01*
X018089Y005743D02*
X017989Y005743D01*
X018001Y005751D02*
X018048Y005751D01*
X017910Y005836D02*
X017490Y005836D01*
X017485Y005828D02*
X017904Y005828D01*
X017897Y005819D02*
X017480Y005819D01*
X017476Y005811D02*
X017889Y005811D01*
X017881Y005802D02*
X017472Y005802D01*
X017469Y005794D02*
X017873Y005794D01*
X017865Y005785D02*
X017466Y005785D01*
X017463Y005777D02*
X017857Y005777D01*
X017849Y005768D02*
X017460Y005768D01*
X017458Y005760D02*
X017841Y005760D01*
X017834Y005751D02*
X017456Y005751D01*
X017455Y005743D02*
X017828Y005743D01*
X017824Y005734D02*
X017453Y005734D01*
X017451Y005726D02*
X017820Y005726D01*
X017818Y005717D02*
X017451Y005717D01*
X017451Y005709D02*
X017816Y005709D01*
X017815Y005700D02*
X017451Y005700D01*
X017450Y005692D02*
X017816Y005692D01*
X017816Y005683D02*
X017450Y005683D01*
X017450Y005675D02*
X017818Y005675D01*
X017821Y005666D02*
X017449Y005666D01*
X017449Y005658D02*
X017824Y005658D01*
X017927Y005862D02*
X017675Y005862D01*
X017687Y005870D02*
X017933Y005870D01*
X017939Y005879D02*
X017699Y005879D01*
X017711Y005887D02*
X017944Y005887D01*
X017949Y005896D02*
X017721Y005896D01*
X017730Y005904D02*
X017953Y005904D01*
X017956Y005913D02*
X017738Y005913D01*
X017745Y005921D02*
X017959Y005921D01*
X017963Y005947D02*
X017759Y005947D01*
X017762Y005955D02*
X017963Y005955D01*
X017962Y005964D02*
X017764Y005964D01*
X017766Y005972D02*
X017961Y005972D01*
X017959Y005981D02*
X017765Y005981D01*
X017764Y005989D02*
X017956Y005989D01*
X017952Y005998D02*
X017761Y005998D01*
X017759Y006006D02*
X017949Y006006D01*
X017943Y006015D02*
X017753Y006015D01*
X017748Y006023D02*
X017937Y006023D01*
X017930Y006032D02*
X017740Y006032D01*
X017731Y006040D02*
X017921Y006040D01*
X017912Y006049D02*
X017715Y006049D01*
X017687Y006057D02*
X017902Y006057D01*
X017890Y006066D02*
X017653Y006066D01*
X017665Y006074D02*
X017878Y006074D01*
X017863Y006083D02*
X017685Y006083D01*
X017704Y006091D02*
X017846Y006091D01*
X017817Y006100D02*
X017737Y006100D01*
X017573Y005921D02*
X017570Y005921D01*
X017573Y005913D02*
X017559Y005913D01*
X017549Y005904D02*
X017573Y005904D01*
X017573Y005896D02*
X017538Y005896D01*
X017528Y005887D02*
X017574Y005887D01*
X017576Y005879D02*
X017522Y005879D01*
X017515Y005870D02*
X017583Y005870D01*
X017591Y005862D02*
X017508Y005862D01*
X017603Y005853D02*
X017611Y005850D01*
X017634Y005848D01*
X017656Y005852D01*
M02*
