G75*
G70*
%OFA0B0*%
%FSLAX24Y24*%
%IPPOS*%
%LPD*%
%AMOC8*
5,1,8,0,0,1.08239X$1,22.5*
%
%ADD10C,0.0060*%
%ADD11C,0.0050*%
%ADD12C,0.0080*%
D10*
X019263Y004387D02*
X019320Y004330D01*
X019433Y004330D01*
X019490Y004387D01*
X019490Y004500D01*
X019377Y004500D01*
X019263Y004387D02*
X019263Y004614D01*
X019320Y004670D01*
X019433Y004670D01*
X019490Y004614D01*
X019632Y004670D02*
X019859Y004330D01*
X019859Y004670D01*
X020000Y004670D02*
X020170Y004670D01*
X020227Y004614D01*
X020227Y004387D01*
X020170Y004330D01*
X020000Y004330D01*
X020000Y004670D01*
X019632Y004670D02*
X019632Y004330D01*
X019563Y005330D02*
X019733Y005330D01*
X019790Y005387D01*
X019790Y005614D01*
X019733Y005670D01*
X019563Y005670D01*
X019563Y005330D01*
X019932Y005387D02*
X019988Y005330D01*
X020102Y005330D01*
X020159Y005387D01*
X020159Y005614D01*
X020102Y005670D01*
X019988Y005670D01*
X019932Y005614D01*
X019932Y005387D01*
X019783Y006330D02*
X019670Y006330D01*
X019613Y006387D01*
X019613Y006500D02*
X019727Y006557D01*
X019783Y006557D01*
X019840Y006500D01*
X019840Y006387D01*
X019783Y006330D01*
X019982Y006443D02*
X020095Y006330D01*
X020209Y006443D01*
X020209Y006670D01*
X019982Y006670D02*
X019982Y006443D01*
X019613Y006500D02*
X019613Y006670D01*
X019840Y006670D01*
X019132Y007030D02*
X019075Y007087D01*
X019075Y007314D01*
X019019Y007257D02*
X019132Y007257D01*
X018877Y007257D02*
X018877Y007030D01*
X018707Y007030D01*
X018650Y007087D01*
X018650Y007257D01*
X018509Y007200D02*
X018452Y007257D01*
X018339Y007257D01*
X018282Y007200D01*
X018282Y007087D01*
X018339Y007030D01*
X018452Y007030D01*
X018509Y007087D01*
X018509Y007200D01*
X018145Y007257D02*
X017975Y007143D01*
X018145Y007030D01*
X017975Y007030D02*
X017975Y007370D01*
X017834Y007200D02*
X017834Y007030D01*
X017664Y007030D01*
X017607Y007087D01*
X017664Y007143D01*
X017834Y007143D01*
X017834Y007200D02*
X017777Y007257D01*
X017664Y007257D01*
X017465Y007200D02*
X017465Y007143D01*
X017239Y007143D01*
X017239Y007087D02*
X017239Y007200D01*
X017295Y007257D01*
X017409Y007257D01*
X017465Y007200D01*
X017102Y007257D02*
X017045Y007257D01*
X016932Y007143D01*
X016932Y007030D02*
X016932Y007257D01*
X016790Y007257D02*
X016733Y007200D01*
X016563Y007200D01*
X016563Y007030D02*
X016563Y007370D01*
X016733Y007370D01*
X016790Y007314D01*
X016790Y007257D01*
X016733Y007200D02*
X016790Y007143D01*
X016790Y007087D01*
X016733Y007030D01*
X016563Y007030D01*
X017239Y007087D02*
X017295Y007030D01*
X017409Y007030D01*
X015559Y006670D02*
X015559Y006443D01*
X015445Y006330D01*
X015332Y006443D01*
X015332Y006670D01*
X015190Y006670D02*
X014963Y006670D01*
X014963Y006500D01*
X015077Y006557D01*
X015133Y006557D01*
X015190Y006500D01*
X015190Y006387D01*
X015133Y006330D01*
X015020Y006330D01*
X014963Y006387D01*
X014963Y005670D02*
X015133Y005670D01*
X015190Y005614D01*
X015190Y005387D01*
X015133Y005330D01*
X014963Y005330D01*
X014963Y005670D01*
X015332Y005670D02*
X015445Y005670D01*
X015388Y005670D02*
X015388Y005330D01*
X015332Y005330D02*
X015445Y005330D01*
X016863Y007530D02*
X016977Y007643D01*
X017090Y007530D01*
X017090Y007870D01*
X017232Y007814D02*
X017232Y007757D01*
X017288Y007700D01*
X017402Y007700D01*
X017459Y007643D01*
X017459Y007587D01*
X017402Y007530D01*
X017288Y007530D01*
X017232Y007587D01*
X017600Y007530D02*
X017827Y007757D01*
X017827Y007814D01*
X017770Y007870D01*
X017657Y007870D01*
X017600Y007814D01*
X017459Y007814D02*
X017402Y007870D01*
X017288Y007870D01*
X017232Y007814D01*
X016863Y007870D02*
X016863Y007530D01*
X017600Y007530D02*
X017827Y007530D01*
X017968Y007587D02*
X018025Y007530D01*
X018138Y007530D01*
X018195Y007587D01*
X018195Y007643D01*
X018138Y007700D01*
X018025Y007700D01*
X017968Y007757D01*
X017968Y007814D01*
X018025Y007870D01*
X018138Y007870D01*
X018195Y007814D01*
X018195Y007757D01*
X018138Y007700D01*
X018025Y007700D02*
X017968Y007643D01*
X017968Y007587D01*
X018337Y007587D02*
X018393Y007530D01*
X018507Y007530D01*
X018563Y007587D01*
X018563Y007814D01*
X018337Y007587D01*
X018337Y007814D01*
X018393Y007870D01*
X018507Y007870D01*
X018563Y007814D01*
X018705Y007757D02*
X018818Y007870D01*
X018818Y007530D01*
X018705Y007530D02*
X018932Y007530D01*
D11*
X015728Y004600D02*
X015683Y004645D01*
X015548Y004645D01*
X015548Y004375D01*
X015683Y004375D01*
X015728Y004420D01*
X015728Y004600D01*
X015433Y004645D02*
X015433Y004375D01*
X015253Y004645D01*
X015253Y004375D01*
X015138Y004420D02*
X015138Y004510D01*
X015048Y004510D01*
X014958Y004420D02*
X015003Y004375D01*
X015093Y004375D01*
X015138Y004420D01*
X014958Y004420D02*
X014958Y004600D01*
X015003Y004645D01*
X015093Y004645D01*
X015138Y004600D01*
D12*
X014083Y004000D02*
X013833Y004250D01*
X013833Y004750D01*
X014083Y005000D01*
X013833Y005250D01*
X013833Y005750D01*
X014083Y006000D01*
X013833Y006250D01*
X013833Y006750D01*
X014083Y007000D01*
X014583Y007000D01*
X014833Y006750D01*
X014833Y006250D01*
X014583Y006000D01*
X014833Y005750D01*
X014833Y005250D01*
X014583Y005000D01*
X014833Y004750D01*
X014833Y004250D01*
X014583Y004000D01*
X014083Y004000D01*
X017479Y004516D02*
X017558Y004516D01*
X018109Y004516D02*
X018188Y004516D01*
X020333Y004750D02*
X020333Y004250D01*
X020583Y004000D01*
X021083Y004000D01*
X021333Y004250D01*
X021333Y004750D01*
X021083Y005000D01*
X021333Y005250D01*
X021333Y005750D01*
X021083Y006000D01*
X021333Y006250D01*
X021333Y006750D01*
X021083Y007000D01*
X020583Y007000D01*
X020333Y006750D01*
X020333Y006250D01*
X020583Y006000D01*
X020333Y005750D01*
X020333Y005250D01*
X020583Y005000D01*
X020333Y004750D01*
X018818Y005106D02*
X018818Y005894D01*
X018533Y005776D02*
X018535Y005794D01*
X018541Y005812D01*
X018550Y005828D01*
X018562Y005841D01*
X018577Y005852D01*
X018594Y005860D01*
X018612Y005864D01*
X018630Y005864D01*
X018648Y005860D01*
X018665Y005852D01*
X018680Y005841D01*
X018692Y005828D01*
X018701Y005812D01*
X018707Y005794D01*
X018709Y005776D01*
X018707Y005758D01*
X018701Y005740D01*
X018692Y005724D01*
X018680Y005711D01*
X018665Y005700D01*
X018648Y005692D01*
X018630Y005688D01*
X018612Y005688D01*
X018594Y005692D01*
X018577Y005700D01*
X018562Y005711D01*
X018550Y005724D01*
X018541Y005740D01*
X018535Y005758D01*
X018533Y005776D01*
X017983Y005900D02*
X017983Y005550D01*
X017683Y005550D01*
X017683Y005900D01*
X017983Y005900D01*
X016849Y005894D02*
X016849Y005106D01*
X017783Y005300D02*
X017783Y005400D01*
X017883Y005400D01*
X017883Y005300D01*
X017783Y005300D01*
X017558Y006484D02*
X017479Y006484D01*
X018109Y006484D02*
X018188Y006484D01*
M02*
